<?xml version="1.0" encoding="UTF-8"?>
<svg id="Layer_2" data-name="Layer 2" xmlns="http://www.w3.org/2000/svg" xmlns:xlink="http://www.w3.org/1999/xlink" viewBox="0 0 5000 3000">
  <defs>
    <style>
      .cls-1 {
        fill: url(#linear-gradient-2);
      }

      .cls-2 {
        fill: url(#linear-gradient-6);
      }

      .cls-3 {
        fill: url(#linear-gradient-5);
      }

      .cls-4 {
        fill: url(#linear-gradient-3);
      }

      .cls-5 {
        fill: url(#linear-gradient);
      }

      .cls-6 {
        fill: url(#linear-gradient-4);
      }
    </style>
    <linearGradient id="linear-gradient" x1="2386.11" y1="-10911.99" x2="2673.03" y2="-2531.74" gradientTransform="translate(0 -6085.66) scale(1 -1)" gradientUnits="userSpaceOnUse">
      <stop offset="0" stop-color="#fff"/>
      <stop offset="1" stop-color="#b3b3b3"/>
    </linearGradient>
    <linearGradient id="linear-gradient-2" x1="2440.36" y1="-10082.9" x2="2590.62" y2="-5694.03" xlink:href="#linear-gradient"/>
    <linearGradient id="linear-gradient-3" x1="2457.38" y1="-9259.61" x2="2532.51" y2="-4995.97" xlink:href="#linear-gradient"/>
    <linearGradient id="linear-gradient-4" x1="2462.06" y1="-8742.92" x2="2513.71" y2="-5136.67" xlink:href="#linear-gradient"/>
    <linearGradient id="linear-gradient-5" x1="2497.02" y1="-8310.6" x2="2501.71" y2="-4807.64" xlink:href="#linear-gradient"/>
    <linearGradient id="linear-gradient-6" x1="2489.86" y1="-7681.66" x2="2508.65" y2="-4728.09" xlink:href="#linear-gradient"/>
  </defs>
  <g id="Layer_1-2" data-name="Layer 1">
    <g>
      <rect class="cls-5" width="5000" height="3000"/>
      <path class="cls-1" d="m0,3000v-1489.62c25.37,41.97,51.77,83.28,79.18,123.86,104.25,154.3,223.88,299.31,355.59,431.01,131.71,131.71,276.72,251.34,430.99,355.57,156.21,105.54,323.37,196.25,496.82,269.61,177.06,74.89,362.35,132.41,550.71,170.95,192.33,39.36,389.73,59.31,586.71,59.31s394.38-19.95,586.71-59.31c188.37-38.55,373.66-96.06,550.72-170.96,173.45-73.36,340.61-164.08,496.82-269.61,154.27-104.22,299.27-223.85,430.99-355.57,131.72-131.72,251.35-276.72,355.57-430.99,27.41-40.58,53.82-81.9,79.18-123.87v1489.62H0Z"/>
      <path class="cls-4" d="m4565.24,2065.24c-131.72,131.72-276.73,251.35-430.99,355.57-156.21,105.54-323.37,196.25-496.82,269.61-177.07,74.89-362.35,132.41-550.72,170.96-192.33,39.35-389.72,59.31-586.71,59.31s-394.38-19.95-586.71-59.31c-188.36-38.54-373.64-96.06-550.71-170.95-173.46-73.37-340.61-164.08-496.82-269.61-154.27-104.22-299.28-223.86-430.99-355.57-131.71-131.71-251.34-276.72-355.59-431.01-27.41-40.57-53.81-81.89-79.18-123.86V0h179.31c0,156.67,15.86,313.6,47.13,466.43,30.61,149.57,76.27,296.68,135.74,437.27,58.27,137.76,130.33,270.55,214.18,394.66,82.86,122.64,177.96,237.91,282.67,342.62,104.71,104.71,219.98,199.81,342.61,282.66,124.11,83.85,256.9,155.91,394.67,214.19,140.59,59.46,287.7,105.13,437.26,135.74,152.83,31.27,309.76,47.13,466.43,47.13s313.6-15.86,466.43-47.13c149.57-30.61,296.68-76.27,437.27-135.74,137.76-58.27,270.55-130.33,394.67-214.18,122.63-82.85,237.9-177.95,342.62-282.67,104.71-104.71,199.82-219.99,282.66-342.62,83.85-124.11,155.91-256.9,214.19-394.67,59.46-140.59,105.13-287.7,135.74-437.26,31.27-152.81,47.13-309.75,47.13-466.42h179.3v1510.38c-25.37,41.97-51.77,83.29-79.18,123.87-104.22,154.27-223.86,299.28-355.57,430.99Z"/>
      <path class="cls-6" d="m4637.83,903.69c-58.27,137.77-130.34,270.56-214.19,394.67-82.85,122.63-177.95,237.9-282.66,342.62-104.72,104.71-219.99,199.82-342.62,282.67-124.11,83.85-256.9,155.91-394.67,214.18-140.58,59.46-287.7,105.13-437.27,135.74-152.83,31.27-309.76,47.13-466.43,47.13s-313.6-15.86-466.43-47.13c-149.56-30.6-296.67-76.27-437.26-135.74-137.77-58.27-270.56-130.34-394.67-214.19-122.63-82.85-237.9-177.95-342.61-282.66-104.71-104.71-199.81-219.98-282.67-342.62-83.85-124.12-155.91-256.9-214.18-394.66-59.46-140.58-105.13-287.7-135.74-437.27C195.16,313.6,179.31,156.67,179.31,0h600c0,116.35,11.76,232.81,34.95,346.14,22.66,110.76,56.48,219.7,100.52,323.81,43.18,102.09,96.59,200.51,158.76,292.52,61.47,90.99,132.04,176.52,209.76,254.24,77.72,77.72,163.25,148.29,254.24,209.76,92.01,62.16,190.43,115.58,292.52,158.76,104.11,44.04,213.06,77.85,323.81,100.52,113.33,23.19,229.79,34.95,346.14,34.95s232.81-11.76,346.14-34.95c110.76-22.66,219.7-56.48,323.81-100.52,102.09-43.18,200.51-96.59,292.52-158.76,90.99-61.47,176.52-132.04,254.24-209.76s148.29-163.25,209.76-254.24c62.16-92.01,115.58-190.43,158.76-292.52,44.04-104.11,77.85-213.05,100.52-323.81,23.19-113.33,34.95-229.79,34.95-346.14h600c0,156.68-15.86,313.61-47.13,466.42-30.6,149.56-76.27,296.68-135.74,437.26Z"/>
      <path class="cls-3" d="m4085.23,669.96c-43.18,102.09-96.59,200.51-158.76,292.52-61.47,90.99-132.04,176.52-209.76,254.24s-163.25,148.29-254.24,209.76c-92.01,62.16-190.43,115.58-292.52,158.76-104.11,44.04-213.05,77.85-323.81,100.52-113.33,23.19-229.79,34.95-346.14,34.95s-232.81-11.76-346.14-34.95c-110.76-22.66-219.7-56.48-323.81-100.52-102.09-43.18-200.51-96.59-292.52-158.76-90.99-61.47-176.52-132.04-254.24-209.76-77.72-77.72-148.29-163.25-209.76-254.24-62.16-92.01-115.58-190.43-158.76-292.52-44.04-104.11-77.85-213.05-100.52-323.81-23.19-113.33-34.95-229.79-34.95-346.14h600c0,618.94,501.75,1120.7,1120.7,1120.7S3620.7,618.94,3620.7,0h600c0,116.35-11.76,232.81-34.95,346.14-22.66,110.76-56.48,219.7-100.52,323.81Z"/>
      <path class="cls-2" d="m2500,1120.7c-618.94,0-1120.7-501.75-1120.7-1120.7h2241.39c0,618.94-501.75,1120.7-1120.7,1120.7Z"/>
    </g>
  </g>
</svg>