<?xml version="1.0" encoding="UTF-8"?>
<svg id="Layer_2" data-name="Layer 2" xmlns="http://www.w3.org/2000/svg" viewBox="0 0 501.42 462.24">
  <defs>
    <style>
      .cls-1 {
        fill: #ff791f;
      }
    </style>
  </defs>
  <g id="Layer_1-2" data-name="Layer 1">
    <g>
      <path class="cls-1" d="m435.71,335.76c-6,0-11.99,0-17.99-.02-.85,0-1.38.27-1.83,1.03-1.98,3.34-3.94,6.68-6.05,9.94-9.9,15.33-21.63,29.11-35.07,41.45-4.69,4.3-9.55,8.38-14.6,12.24-12.66,9.68-26.23,17.83-40.73,24.46-10.68,4.88-21.68,8.87-33.01,11.91-13.51,3.62-27.23,5.91-41.2,6.78-7.91.49-15.8.56-23.72.24-8.63-.35-17.2-1.27-25.72-2.67-19.57-3.23-38.3-9.16-56.21-17.68-11.04-5.25-21.54-11.42-31.51-18.49-8.85-6.28-17.17-13.19-24.97-20.73-5.86-5.67-11.38-11.67-16.57-17.97-9.29-11.27-17.32-23.38-24.1-36.31-8.42-16.05-14.67-32.92-18.77-50.58-3.15-13.59-4.93-27.37-5.38-41.3-.18-5.43-.12-10.87.12-16.31.38-8.64,1.27-17.21,2.67-25.73,3.27-19.86,9.29-38.86,18-57,5.01-10.44,10.84-20.4,17.49-29.89,8.62-12.28,18.39-23.54,29.38-33.77,6.56-6.11,13.46-11.8,20.72-17.05,12.89-9.31,26.65-17.07,41.28-23.28,11.29-4.79,22.9-8.56,34.85-11.34,13.43-3.12,27.04-4.9,40.8-5.37,5.67-.2,11.34-.14,17.02.11,7.83.35,15.62,1.09,23.35,2.29,21.69,3.37,42.38,9.96,62.02,19.76,9.31,4.65,18.23,9.97,26.77,15.93,10.52,7.34,20.28,15.58,29.33,24.65,4.54,4.55,8.85,9.34,12.95,14.3,9.54,11.53,17.79,23.92,24.73,37.18,7.26,13.87,12.92,28.38,16.92,43.51.27,1.01.74,1.33,1.75,1.33,5.24-.04,10.47-.01,15.71-.02,1.63,0,1.65-.03,1.25-1.63-2.84-11.47-6.52-22.66-11.07-33.57-7.37-17.66-16.78-34.15-28.25-49.45-7.61-10.15-15.96-19.65-25.17-28.41-6-5.71-12.22-11.15-18.77-16.2-14.46-11.16-30.03-20.5-46.7-27.98-16.38-7.35-33.38-12.7-51.01-16.05-9.78-1.86-19.64-3.11-29.59-3.66-1.5-.08-3.03.05-4.5-.41h-18.71c-1.47.46-3.01.33-4.5.42-10.75.6-21.39,2.01-31.94,4.13-16.36,3.3-32.17,8.33-47.45,15.07-13.24,5.84-25.81,12.9-37.72,21.1-7.35,5.06-14.35,10.55-21.08,16.42-5.67,4.94-11.08,10.17-16.23,15.64-11.93,12.68-22.31,26.54-31.12,41.57-7.73,13.19-14.07,27-19.06,41.45-4.84,14.03-8.28,28.39-10.34,43.09-.85,6.09-1.49,12.21-1.81,18.36-.08,1.5.05,3.04-.41,4.51v18.72c.48,1.43.32,2.93.4,4.39.62,11.2,2.11,22.27,4.38,33.25,3.25,15.72,8.09,30.93,14.52,45.64,5.91,13.53,13.09,26.35,21.46,38.5,5.04,7.31,10.51,14.28,16.35,20.99,4.86,5.59,10,10.9,15.37,15.98,10.71,10.13,22.3,19.16,34.76,27.06,6.96,4.42,14.11,8.49,21.5,12.14,18.57,9.16,38.02,15.73,58.35,19.65,8.79,1.69,17.65,2.93,26.59,3.49,2.35.15,4.7.3,7.05.45.32.02.64.04.92.23h18.71c.39-.27.84-.21,1.28-.23,2.91-.17,5.83-.27,8.73-.53,7.56-.68,15.08-1.65,22.55-3.01,20.02-3.65,39.2-9.88,57.56-18.64,11.53-5.5,22.54-11.92,32.99-19.28,12.49-8.79,24.04-18.65,34.58-29.72,7.21-7.57,13.91-15.54,20.05-23.99,6.87-9.46,13.03-19.37,18.35-29.79.6-1.18.55-1.27-.74-1.27Z"/>
      <path class="cls-1" d="m501.38,256.46c0-13.84-.01-27.68.01-41.52,0-2.16-.11-4.3-.5-6.44-1.06-5.7-3.73-10.35-8.69-13.5-5.76-3.65-12.18-4.22-18.72-3.61-7.58.71-13.69,4.33-18.53,10.15-.84,1.01-.9.99-1.68-.16-1.91-2.8-4.12-5.32-7.05-7.09-4.5-2.71-9.39-3.32-14.55-2.85-7.44.67-13.34,4.08-18.03,9.77-.24.29-.37.73-.83.75-.22-.15-.19-.36-.2-.55,0-2.28,0-4.56,0-6.84,0-1.57-.05-1.62-1.62-1.62-6.64,0-13.27,0-19.91,0q-2.01,0-2.01,2.07c0,19.36,0,38.72,0,58.08,0,.36.02.72,0,1.08-.02.3.14.75-.23.86-.44.13-.56-.37-.73-.65-.72-1.2-.92-2.53-.92-3.91,0-12.08,0-24.16.01-36.24,0-2.13-.17-4.23-.51-6.33-.63-3.84-2.32-7.06-5.26-9.69-3.75-3.35-8.27-4.93-13.03-6-7.16-1.61-14.41-1.76-21.7-1.25-5.33.37-10.56,1.24-15.49,3.4-6.02,2.64-10.42,6.77-12.02,13.4-.04.18-.12.35-.18.53-.16-.29-.18-.55-.18-.82,0-4.88,0-9.76,0-14.64,0-1.52-.06-1.54-1.53-1.59-1.56-.05-3.12.07-4.66.25-5.02.58-9.43,2.36-12.67,6.47-1.45,1.84-2.51,3.89-3.7,6.01,0-3.15,0-6.29,0-9.44,0-1.46-.12-1.58-1.58-1.58-6.96,0-13.91,0-20.87,0-1.47,0-1.54.07-1.54,1.58,0,20.68,0,41.36,0,62.04,0,1.63.02,1.65,1.7,1.65,7.4,0,14.79,0,22.19,0,2.06,0,2.04,0,2.07-2.02.11-9.08-.23-18.15.19-27.23.29-6.25,3.81-10.39,9.93-11.66,2.7-.56,5.41-.38,8.13-.36,2.32.01,2.32.04,2.33-2.36,0-1.72,0-1.72,1.74-1.72,7.28,0,14.55-.01,21.83.01.98,0,1.51-.22,1.73-1.3.45-2.2,1.83-3.77,3.96-4.45,3.74-1.19,7.54-1.1,11.14.43,3.25,1.38,3.56,5.55.7,7.63-2,1.45-4.34,2.06-6.71,2.43-3.75.57-7.53.96-11.28,1.48-5.59.78-11.11,1.86-16.35,4.09-4.82,2.04-7.95,5.51-9.28,10.58-.69,2.63-.67,5.3-.62,7.98.16,7.97,4.98,14.64,12.52,17.16,7.39,2.47,14.8,2.11,22.17-.07,4.07-1.21,7.71-3.3,10.97-6.02.75-.63,1.14-.68,1.36.43.25,1.25.69,2.47.94,3.72.2.97.69,1.28,1.66,1.28,7.44-.03,14.87-.03,22.31,0,1.03,0,1.63-.23,1.51-1.39-.03-.27-.13-.73.37-.72.38.01.54.38.51.7-.12,1.38.73,1.41,1.75,1.41,7-.02,13.99-.01,20.99-.01,1.8,0,1.81,0,1.81-1.78,0-11,0-22,0-33,0-2.21.22-4.4,1-6.48,1.39-3.7,4.36-5.5,8.61-5.28,4.11.21,6.58,2.17,7.6,6.07.6,2.3.76,4.65.76,7.01,0,10.6,0,21.2,0,31.8,0,1.65.02,1.66,1.68,1.66,7.32,0,14.63,0,21.95,0,1.79,0,1.79,0,1.79-1.8,0-11.08,0-22.16,0-33.24,0-1.32.03-2.64.3-3.94.61-3.02,1.71-5.72,4.88-6.9,1.87-.69,3.8-.83,5.79-.54,3.3.49,5.31,2.37,6.18,5.55.45,1.63.64,3.28.63,4.98-.01,11.4,0,22.8,0,34.2,0,1.65.03,1.68,1.67,1.68,7.4,0,14.79,0,22.19,0,1.81,0,1.81,0,1.81-1.78Zm-140.13-19.34c-1.09,4.54-4.18,7.21-8.84,7.65-1.75.16-3.49.3-5.25.02-3.25-.52-5.19-2.73-5.1-5.87.05-1.84,1.25-2.9,2.58-3.81,2.21-1.51,4.74-2.29,7.29-2.97,2.9-.77,5.79-1.55,8.6-2.61.86-.32,1.2-.08,1.2.8,0,.68,0,1.36,0,2.04.08,1.61-.1,3.2-.48,4.76Z"/>
      <path class="cls-1" d="m269.64,209.71c-.96-5.82-3.57-10.66-8.4-14.15-3.64-2.63-7.8-3.72-12.22-4.11-6.25-.55-12.09.56-17.45,3.89-1.67,1.04-3.16,2.31-4.57,3.68-.17.16-.32.42-.59.33-.28-.1-.21-.4-.22-.63-.02-.36,0-.72,0-1.08,0-14.76,0-29.51,0-44.27,0-1.87-.04-1.91-1.85-1.91-7.43,0-14.87,0-22.3,0-1.77,0-1.78,0-1.78,1.83,0,17.2,0,34.39,0,51.59,0,17.2,0,34.39,0,51.59,0,1.78,0,1.79,1.81,1.79,7.39,0,14.79,0,22.18,0q1.93,0,1.93-1.9c0-11.24.01-22.47.02-33.71,0-1.65.32-3.25.79-4.83,1.08-3.63,3.45-5.84,7.23-6.23,5.7-.58,9.2,1.32,9.96,7.15.26,2.02.46,4.05.46,6.09,0,10.52,0,21.03,0,31.55q0,1.88,1.83,1.88c7.43,0,14.87,0,22.3,0,1.79,0,1.79,0,1.79-1.8,0-11.24.07-22.48-.04-33.71-.04-4.35-.18-8.7-.9-13.02Z"/>
      <polygon class="cls-1" points="83.71 192.97 83.73 192.97 83.73 192.95 83.71 192.97"/>
      <path class="cls-1" d="m82.76,240.79c.74,5.88,3.12,10.89,7.94,14.52,6.13,4.61,13.13,5.31,20.43,4.21,5.77-.86,10.64-3.54,14.69-7.73.84-.87,1.76-1.68,2.64-2.51.23.34.12.75.12,1.13.01,2.04,0,4.08,0,6.12,0,1.69.02,1.71,1.64,1.71,6.84,0,13.67,0,20.51,0,1.55,0,1.6-.05,1.6-1.63,0-20.68,0-41.35,0-62.03,0-1.54-.06-1.6-1.64-1.6-7.48,0-14.95,0-22.43,0-1.82,0-1.86.04-1.86,1.9,0,10.64,0,21.28,0,31.91,0,1.36-.02,2.72-.27,4.06-.53,2.84-1.33,5.53-3.82,7.35-1.88,1.38-4.02,1.62-6.27,1.57-4.09-.09-6.49-1.96-7.43-5.96-.48-2.07-.69-4.18-.69-6.3,0-10.92,0-21.84,0-32.75q0-1.77-1.82-1.78c-7.47,0-14.94,0-22.41-.01,0,7.52,0,15.05,0,22.57,0,1.65,0,1.65-1.67,1.43.04,7.95-.28,15.9.71,23.82Z"/>
      <path class="cls-1" d="m82.05,216.97h0s0-.01-.01-.01h0s0,.01.01.01Z"/>
      <path class="cls-1" d="m197.69,174.67c-2.92.05-5.84.02-8.75.02q-2.06,0-2.06-2c0-5.48,0-10.96,0-16.44,0-1.69-.02-1.71-1.64-1.71-7.47,0-14.95,0-22.42,0-1.63,0-1.66.03-1.66,1.7,0,5.6,0,11.2,0,16.8,0,1.58-.07,1.65-1.6,1.65-2.12,0-4.24.04-6.35-.01-.97-.02-1.36.32-1.35,1.31.03,4.12.03,8.24,0,12.36,0,.92.32,1.29,1.26,1.27,2.08-.04,4.16-.01,6.24-.01q1.81,0,1.81,1.77c0,8.64,0,17.28,0,25.91,0,8.04.01,16.08,0,24.11,0,2.25.21,4.47.74,6.65,1.2,4.9,4.09,8.2,8.98,9.71,2.58.8,5.22,1.31,7.88,1.4,6.43.2,12.86.13,19.28-.39.98-.08,1.31-.41,1.31-1.38-.03-5.36-.03-10.72,0-16.08,0-.97-.32-1.34-1.32-1.33-2.19.02-4.39.16-6.58-.25-3-.56-4.56-2.33-4.56-5.39-.01-14.44,0-28.87-.02-43.31,0-1.09.35-1.47,1.45-1.46,3.16.05,6.32,0,9.47.03,1,.01,1.33-.37,1.32-1.34-.03-4.08-.04-8.16,0-12.24.01-1.06-.39-1.39-1.42-1.37Z"/>
      <path class="cls-1" d="m83.73,192.95s0,0-.01,0c0,0,0,0,0,.01,0,0,.01-.01.01-.01Z"/>
      <path class="cls-1" d="m74.27,217.17c2.59-.39,5.18-.13,7.77-.22,0-7.39,0-14.79.02-22.18q0-1.69,1.66-1.82c0-1.66,0-1.64-1.65-1.68-1.4-.04-2.79.11-4.18.24-6.79.61-11.98,3.67-15.15,9.84-.46.9-.9,1.82-1.38,2.81-.28-.49-.17-.9-.17-1.28-.01-2.76,0-5.52,0-8.28,0-1.57-.04-1.62-1.61-1.62-6.88,0-13.75,0-20.63,0-1.67,0-1.74.08-1.74,1.77,0,20.6,0,41.19,0,61.79,0,1.7,0,1.7,1.77,1.7,7.48,0,14.95,0,22.43,0q1.93,0,1.93-1.91c0-8.88-.15-17.76.06-26.63.17-7.05,3.56-11.43,10.88-12.53Z"/>
      <path class="cls-1" d="m316.19,102.93c9.6,6.41,18.42,13.76,26.36,22.17,3.9,4.13,7.62,8.41,11.05,12.94,9.61,12.68,17.16,26.49,22.43,41.52.3.85.65,1.21,1.55.81.62-.28,1.29-.43,1.93-.66,1.68-.6,1.69-.61,1.1-2.26-2.97-8.35-6.64-16.38-10.98-24.09-9.39-16.68-21.39-31.23-36.02-43.58-11.52-9.73-24.17-17.68-37.95-23.83-18.7-8.34-38.29-12.81-58.72-13.66-6.39-.27-12.79-.09-19.16.48-9.57.85-19.01,2.47-28.29,4.99-15.98,4.34-30.93,10.98-44.82,20.01-10.56,6.87-20.19,14.86-28.85,24.04-4.34,4.6-8.36,9.45-12.22,14.46-.56.73-.58,1.23.25,1.73.65.39,1.24.87,1.85,1.32,1.26.92,1.24.91,2.13-.3,3.54-4.8,7.38-9.35,11.48-13.67,4.27-4.49,8.79-8.72,13.56-12.69,10.73-8.93,22.45-16.27,35.19-21.97,20.1-8.99,41.18-13.43,65.03-13.44,4.29-.1,10.39.33,16.45,1.07,11.71,1.42,23.12,4.13,34.2,8.19,11.47,4.2,22.3,9.66,32.45,16.43Z"/>
      <path class="cls-1" d="m58.03,172.26c3.25-9.61,7.31-18.85,12.12-27.79,7.41-13.78,16.45-26.38,27.1-37.82,5.42-5.82,11.17-11.32,17.32-16.39,13.38-11.02,28-20.06,43.91-26.95,22.98-9.95,47.03-14.81,72.03-15.01,3.87-.03,7.74.16,11.61.38,6.31.36,12.57,1.05,18.8,2.07,11.19,1.84,22.12,4.7,32.78,8.59,6.95,2.54,13.74,5.46,20.31,8.89,1.67.87,1.64.93,2.51-.8.25-.5.46-1.03.77-1.49.64-.96.42-1.48-.62-2.01-9.11-4.63-18.51-8.53-28.24-11.65-18.56-5.95-37.58-8.95-57.02-8.92-3.45.13-6.85.06-10.25.23-7.11.36-14.17,1.12-21.19,2.3-17.9,3-35.03,8.45-51.33,16.44-14.14,6.93-27.2,15.51-39.2,25.72-6.92,5.89-13.4,12.23-19.39,19.05-6.52,7.43-12.43,15.33-17.72,23.7-7.6,12.01-13.75,24.73-18.47,38.14-1.14,3.25-1.12,3.26,2.16,4.33q1.49.49,2-1.02Z"/>
      <path class="cls-1" d="m270.94,409.53c-10.04,2.26-20.2,3.65-30.47,4.18-5.1.26-10.21.35-15.33.12-5.67-.26-11.33-.61-16.95-1.33-13.12-1.69-25.93-4.74-38.4-9.18-13.62-4.85-26.5-11.19-38.6-19.09-7.14-4.66-13.92-9.79-20.34-15.41-2.89-2.53-5.66-5.18-8.44-7.82-.61-.58-1-.63-1.56,0-.55.63-1.14,1.24-1.78,1.78-.8.66-.8,1.13-.03,1.9,3.75,3.72,7.65,7.26,11.7,10.64,11.16,9.31,23.23,17.24,36.23,23.73,8.52,4.26,17.34,7.81,26.41,10.75,18.78,6.09,38.05,9.05,58.85,9.21,4.69-.23,10.48-.32,16.25-.87,8.89-.85,17.67-2.27,26.34-4.37,21.7-5.25,41.86-14.05,60.44-26.44,10.74-7.16,20.64-15.34,29.68-24.56,5.91-6.03,11.44-12.38,16.49-19.16,2.05-2.75,2.04-2.71-.84-4.76-.92-.66-1.43-.61-2.11.34-4.39,6.11-9.21,11.87-14.38,17.33-4.72,5-9.74,9.7-14.99,14.14-10.05,8.51-20.89,15.83-32.52,21.98-14.46,7.66-29.67,13.28-45.64,16.88Z"/>
      <path class="cls-1" d="m314.25,362.32c-.51-1.1-1.1-1.06-2.05-.47-5.66,3.55-11.55,6.69-17.64,9.45-18.24,8.3-37.39,12.78-57.38,13.59-9.92.41-19.81-.15-29.63-1.68-17.3-2.7-33.67-8.15-49.12-16.42-11.98-6.42-22.9-14.31-32.8-23.6-6.95-6.52-13.21-13.67-18.84-21.38-10.76-14.71-18.6-30.84-23.68-48.33-.98-3.38-.96-3.35-4.38-2.5-1.05.26-1.34.66-1.04,1.75,3.34,12.12,8.02,23.69,14.05,34.73,7.26,13.28,16.31,25.23,26.93,35.97,3.88,3.92,7.99,7.61,12.28,11.08,12.52,10.13,26.24,18.24,41.2,24.21,18.93,7.55,38.61,11.24,56.58,11.29,8.08,0,13.73-.35,19.38-.93,11.46-1.18,22.63-3.68,33.55-7.32,6.3-2.1,12.44-4.63,18.42-7.51,5.12-2.46,10.08-5.22,14.9-8.23.81-.51,1.1-.96.48-1.79-.45-.61-.91-1.23-1.23-1.92Z"/>
      <path class="cls-1" d="m448.73,275.97c-8.61.35-14.67,4.69-18.27,12.27-4.04,8.5-4.05,17.27-.28,25.89,3.45,7.88,10.43,12.65,19.13,12.64.36-.03.72-.07,1.07-.09,8.72-.48,14.6-5.1,18.15-12.82,3.24-7.05,3.46-14.4,1.32-21.78-2.89-9.98-10.85-16.54-21.12-16.12Zm8.1,37.1c-4.01,5.44-11.38,5.23-15.15-.39-1.59-2.38-2.47-5.02-2.79-7.83-.44-3.92-.36-7.82,1.04-11.58.97-2.6,2.37-4.91,4.85-6.34,4.6-2.66,10.14-.88,12.85,4.07,1.63,2.97,2.46,6.49,2.46,11.33-.1,3.23-.7,7.27-3.26,10.75Z"/>
      <path class="cls-1" d="m391.04,291.67c1.63-4.2,5.43-6.39,9.89-5.92,2.89.3,5.39,1.41,7.66,3.11.73.55,1.2.54,1.74-.27,1.4-2.14,2.85-4.25,4.35-6.32.57-.79.36-1.18-.35-1.72-4.43-3.34-9.41-4.72-14.93-4.6-8.59.19-15.3,4.65-18.45,12.67-3.15,8.03-3.32,16.32-1.33,24.61,1.13,4.71,3.89,8.45,8.12,10.99,3.23,1.93,6.78,2.52,10.47,2.55.6-.04,1.19-.09,1.79-.11,8.84-.35,16.14-6.3,17.06-15.27.66-6.4-1.9-12.71-8.23-15.52-5.95-2.63-11.98-2.9-17.85.46-.3.17-.61.54-.96.27-.32-.25-.12-.67-.06-1.02.23-1.34.6-2.65,1.09-3.92Zm2.28,12.23c3.02-1.37,6.13-1.37,9.16.04,2.64,1.23,3.96,3.36,3.9,7.33,0,2.52-1.99,5.05-5.45,5.87-3.03.72-5.98.55-8.62-1.26-4.31-2.95-3.74-9.83,1.01-11.98Z"/>
      <path class="cls-1" d="m354.81,315.77c-2.49,1.52-5.1,1.39-7.77.87-2.89-.56-5.21-2.17-7.26-4.19-1.26-1.24-1.28-1.27-2.63-.1-1.94,1.67-3.57,3.66-5.56,5.28-.57.46-.31.9.08,1.33,2.25,2.44,4.87,4.38,7.89,5.76,3.88,1.76,7.97,2.14,12.18,1.97,8.34-.34,15.39-5.48,16.18-14.72.35-4.08-.63-7.75-3.6-10.78-2.29-2.34-5.18-3.38-8.24-4.12-.33-.08-.82-.02-.93-.4-.11-.39.34-.59.59-.83,3.55-3.4,7.1-6.8,10.67-10.18.59-.56.89-1.17.87-2-.04-1.84-.04-3.68,0-5.52.02-1.01-.35-1.43-1.4-1.43-10.23.02-20.46.02-30.7,0-.93,0-1.28.35-1.26,1.27.04,2.2.06,4.4,0,6.6-.04,1.16.38,1.52,1.52,1.51,5.36-.04,10.71-.02,16.07-.01.42,0,.87-.12,1.42.24-.37.39-.66.71-.96,1.02-3.13,3.14-6.24,6.31-9.42,9.41-.79.77-1.02,1.51-.69,2.56.41,1.34.73,2.7,1.02,4.07.19.89.62,1.24,1.56,1.24,1.88,0,3.75.07,5.63.2,1.69.11,3.27.62,4.76,1.47,3.28,1.87,3.22,7.53.03,9.48Z"/>
      <path class="cls-1" d="m500.33,272.89c-1.6-3.97-4.41-6.57-8.81-6.94-4.71-.4-8.27,1.61-10.38,5.82-2.12,4.22-2.24,8.63-.37,12.99,2.98,6.91,10.87,8.81,16.55,3.89,3.02-2.61,3.98-6.25,4.08-10.13.11-1.97-.36-3.84-1.07-5.62Zm-6.64,12.11c-1.94,2.03-5.1,1.82-6.83-.4-2.37-3.05-2.42-8.89-.1-11.99,2.03-2.71,5.92-2.37,7.71.68.98,1.67,1.33,3.49,1.37,5.58-.12,2.13-.47,4.37-2.16,6.14Z"/>
    </g>
  </g>
</svg>